<svg xmlns="http://www.w3.org/2000/svg" viewBox="0 0 1600 1000" preserveAspectRatio="xMidYMid slice" role="img" aria-label="Temporary meadow game-room background">
  <defs>
    <linearGradient id="sky" x1="0" x2="0" y1="0" y2="1">
      <stop offset="0" stop-color="#93c5fd"/>
      <stop offset="0.55" stop-color="#dbeafe"/>
      <stop offset="1" stop-color="#ecfccb"/>
    </linearGradient>
    <linearGradient id="field" x1="0" x2="0" y1="0" y2="1">
      <stop offset="0" stop-color="#bef264"/>
      <stop offset="1" stop-color="#3f6212"/>
    </linearGradient>
    <filter id="soft" x="-20%" y="-20%" width="140%" height="140%">
      <feGaussianBlur stdDeviation="10"/>
    </filter>
  </defs>
  <rect width="1600" height="1000" fill="url(#sky)"/>
  <path d="M0 390c120-80 240-118 360-90 118 27 190 102 314 62 130-42 194-178 330-152 105 20 152 115 258 94 96-19 160-94 338-52v322H0z" fill="#bfdbfe"/>
  <path d="M0 442c170-136 328-134 458-82 130 52 206 52 328-48 158-130 298-116 424 18 88 94 226 68 390 16v312H0z" fill="#93c5fd" opacity=".82"/>
  <path d="M0 520c180-96 344-92 506-26 146 59 262 64 404-22 184-112 360-98 690 36v492H0z" fill="url(#field)"/>
  <g opacity=".38" filter="url(#soft)">
    <ellipse cx="180" cy="760" rx="240" ry="86" fill="#fde68a"/>
    <ellipse cx="1330" cy="770" rx="300" ry="108" fill="#bbf7d0"/>
  </g>
  <path d="M0 688c190-70 345-70 522-14 220 69 366 32 548-20 176-51 330-52 530 18v328H0z" fill="#65a30d" opacity=".78"/>
  <g opacity=".75">
    <path d="M70 812c40-28 78-35 116-20M1320 822c62-36 124-45 188-22M1034 872c44-24 88-27 132-10" fill="none" stroke="#fef3c7" stroke-width="8" stroke-linecap="round"/>
    <circle cx="128" cy="840" r="7" fill="#f97316"/>
    <circle cx="214" cy="806" r="6" fill="#ec4899"/>
    <circle cx="1390" cy="806" r="7" fill="#fde047"/>
    <circle cx="1480" cy="850" r="5" fill="#f0abfc"/>
    <circle cx="1088" cy="894" r="6" fill="#fda4af"/>
  </g>
  <path d="M0 590h1600" stroke="#f8fafc" stroke-width="10" opacity=".36"/>
</svg>
