<svg xmlns="http://www.w3.org/2000/svg" viewBox="0 0 256 256" role="img" aria-label="Human ember guardian portrait placeholder">
  <rect width="256" height="256" rx="42" fill="#7f1d1d"/>
  <circle cx="128" cy="132" r="98" fill="#f97316" opacity=".18"/>
  <path d="M54 226c12-52 45-82 74-82s62 30 74 82" fill="#1f2937"/>
  <path d="M79 219c9-38 29-58 49-58s40 20 49 58" fill="#dc2626"/>
  <circle cx="128" cy="103" r="52" fill="#f7c59f"/>
  <path d="M77 101c6-40 31-65 68-62 24 2 44 17 51 44-35-12-76-15-119 18z" fill="#3b1d12"/>
  <path d="M84 116c-16-5-15-27 1-29 6 0 9 8 8 17" fill="#f7c59f"/>
  <path d="M172 104c-1-9 3-17 9-17 16 2 17 24 1 29" fill="#f7c59f"/>
  <circle cx="109" cy="111" r="6" fill="#111827"/>
  <circle cx="148" cy="111" r="6" fill="#111827"/>
  <path d="M123 116l-5 20h17" fill="none" stroke="#b45309" stroke-width="5" stroke-linecap="round" stroke-linejoin="round"/>
  <path d="M106 88c11-5 22-5 31-1M143 87c12-4 23-2 31 4" fill="none" stroke="#2f160d" stroke-width="8" stroke-linecap="round"/>
  <path d="M108 151c13 10 28 10 41 0" fill="none" stroke="#7f1d1d" stroke-width="7" stroke-linecap="round"/>
  <path d="M82 53l46-31 46 31-13 28H95z" fill="#facc15"/>
  <path d="M96 82c22-14 43-16 65-4" fill="none" stroke="#7f1d1d" stroke-width="9" stroke-linecap="round"/>
  <path d="M78 214h100" stroke="#facc15" stroke-width="8" stroke-linecap="round"/>
</svg>
