<svg xmlns="http://www.w3.org/2000/svg" viewBox="0 0 256 256" role="img" aria-label="Human solar chef portrait placeholder">
  <rect width="256" height="256" rx="42" fill="#854d0e"/>
  <circle cx="128" cy="130" r="100" fill="#facc15" opacity=".2"/>
  <path d="M52 226c14-52 48-82 76-82s62 30 76 82" fill="#78350f"/>
  <path d="M78 223c9-42 29-64 50-64s41 22 50 64" fill="#fff7ed"/>
  <circle cx="128" cy="108" r="50" fill="#f4c39a"/>
  <path d="M83 102c7-24 24-38 45-38s38 14 45 38c-27-10-62-10-90 0z" fill="#5f2f13"/>
  <path d="M72 78c0-28 23-49 56-49s56 21 56 49c-32-10-80-10-112 0z" fill="#f8fafc"/>
  <circle cx="100" cy="65" r="20" fill="#f8fafc"/>
  <circle cx="128" cy="54" r="22" fill="#ffffff"/>
  <circle cx="156" cy="65" r="20" fill="#f8fafc"/>
  <path d="M78 113c-13-4-12-24 2-25 6 0 9 7 8 16" fill="#f4c39a"/>
  <path d="M176 104c-1-9 3-16 9-16 14 1 15 21 2 25" fill="#f4c39a"/>
  <circle cx="109" cy="114" r="6" fill="#111827"/>
  <circle cx="148" cy="114" r="6" fill="#111827"/>
  <path d="M123 120l-5 19h16" fill="none" stroke="#9a5b33" stroke-width="5" stroke-linecap="round" stroke-linejoin="round"/>
  <path d="M106 151c14 12 30 12 44 0" fill="none" stroke="#b45309" stroke-width="7" stroke-linecap="round"/>
  <path d="M92 214h72" stroke="#facc15" stroke-width="9" stroke-linecap="round"/>
</svg>
