<svg xmlns="http://www.w3.org/2000/svg" viewBox="0 0 256 256" role="img" aria-label="Human violet duelist portrait placeholder">
  <rect width="256" height="256" rx="42" fill="#312e81"/>
  <circle cx="128" cy="130" r="98" fill="#8b5cf6" opacity=".2"/>
  <path d="M52 226c12-51 47-80 76-80s64 29 76 80" fill="#1e1b4b"/>
  <path d="M78 223c10-43 31-64 50-64s40 21 50 64" fill="#ede9fe"/>
  <circle cx="128" cy="105" r="51" fill="#f1c29d"/>
  <path d="M75 107c2-43 32-75 75-68 27 5 45 24 50 58-49-24-86-21-125 10z" fill="#20133d"/>
  <path d="M89 71c26 17 54 22 100 19" fill="none" stroke="#4c1d95" stroke-width="16" stroke-linecap="round"/>
  <path d="M78 111c-14-4-13-25 2-26 7 0 10 8 9 17" fill="#f1c29d"/>
  <path d="M173 102c-1-9 3-17 10-17 15 1 16 22 2 26" fill="#f1c29d"/>
  <circle cx="108" cy="113" r="6" fill="#111827"/>
  <circle cx="149" cy="113" r="6" fill="#111827"/>
  <path d="M122 119l-5 20h17" fill="none" stroke="#a16207" stroke-width="5" stroke-linecap="round" stroke-linejoin="round"/>
  <path d="M107 151c14 9 29 9 43 0" fill="none" stroke="#6d28d9" stroke-width="7" stroke-linecap="round"/>
  <path d="M190 46l17 17-63 63-17-17z" fill="#f8fafc"/>
  <path d="M121 115l28 28" stroke="#a78bfa" stroke-width="10" stroke-linecap="round"/>
</svg>
